<svg width="320" height="52" viewBox="0 0 320 52" fill="none" xmlns="http://www.w3.org/2000/svg">
<path d="M268.354 29.4904C265.785 29.4904 263.607 29.0622 261.82 28.2057V30.1048C261.82 31.2591 262.397 31.9479 263.551 32.1713L274.052 34.1262C275.802 34.4613 277.384 34.9082 278.799 35.4667C280.214 35.988 281.35 36.7513 282.206 37.7567C283.063 38.7248 283.491 40.0653 283.491 41.7782C283.491 43.6027 282.895 45.2784 281.704 46.805C280.512 48.3689 278.743 49.6163 276.397 50.5472C274.089 51.5154 271.203 51.9994 267.74 51.9994C264.761 51.9994 262.397 51.6829 260.647 51.0499C258.897 50.4541 257.649 49.6722 256.904 48.7041C256.197 47.7359 255.843 46.7119 255.843 45.6321C255.843 44.2916 256.29 42.9325 257.184 41.5548C258.115 40.2143 259.25 39.1344 260.591 38.3153C259.437 37.8684 258.599 37.2913 258.077 36.5838C257.556 35.8763 257.295 35.113 257.295 34.2938C257.295 33.5491 257.482 32.8602 257.854 32.2272C258.264 31.557 258.748 30.8867 259.306 30.2165L261.149 27.8706C258.431 26.3067 257.072 23.8491 257.072 20.4979C257.072 17.8169 258.022 15.6386 259.921 13.963C261.857 12.2874 264.687 11.4496 268.41 11.4496C270.309 11.4496 271.966 11.673 273.381 12.1198C274.834 12.5667 276.025 13.1997 276.956 14.0189C278.148 13.8327 279.265 13.5348 280.307 13.1252C281.387 12.6784 282.355 12.0826 283.212 11.3379L283.994 11.8964V14.745H277.682C279.023 16.2344 279.693 18.1521 279.693 20.4979C279.693 23.1044 278.725 25.2641 276.788 26.9769C274.889 28.6526 272.078 29.4904 268.354 29.4904ZM268.299 28.3733C269.788 28.3733 270.868 27.7589 271.538 26.5301C272.246 25.3013 272.599 23.2534 272.599 20.3862C272.599 17.519 272.246 15.5083 271.538 14.354C270.868 13.1624 269.825 12.5667 268.41 12.5667C267.033 12.5667 265.99 13.1811 265.283 14.4098C264.575 15.6014 264.221 17.6307 264.221 20.4979C264.221 23.3651 264.538 25.3944 265.171 26.586C265.841 27.7775 266.884 28.3733 268.299 28.3733ZM259.976 43.8448C259.976 46.0417 260.647 47.6987 261.987 48.8158C263.365 49.9328 265.525 50.4914 268.466 50.4914C271.557 50.4914 273.884 49.9887 275.448 48.9833C277.012 47.978 277.794 46.563 277.794 44.7384C277.794 43.6958 277.403 42.858 276.621 42.225C275.876 41.592 274.592 41.1079 272.767 40.7728L262.657 38.8738C262.36 38.7993 262.062 38.7248 261.764 38.6504C261.242 39.3951 260.814 40.2329 260.479 41.1638C260.144 42.1319 259.976 43.0256 259.976 43.8448Z" fill="white"/>
<path d="M223.888 39.1537V38.5951L224.67 38.3717C225.973 37.9993 226.625 37.0871 226.625 35.6349V18.1526C226.625 17.3335 226.494 16.7377 226.234 16.3653C225.973 15.9557 225.47 15.6765 224.726 15.5275L223.888 15.3041V14.7456L233.439 11.506L233.997 12.0646L234.444 15.4158C235.748 14.2615 237.218 13.312 238.857 12.5673C240.495 11.8226 242.115 11.4502 243.716 11.4502C246.174 11.4502 248.054 12.1204 249.357 13.4609C250.698 14.8014 251.368 16.8494 251.368 19.6048V35.6907C251.368 37.1429 252.075 38.0552 253.49 38.4276L253.993 38.5951V39.1537H240.812V38.5951L241.538 38.3717C242.841 37.9621 243.493 37.0498 243.493 35.6349V17.8175C243.493 15.4344 242.301 14.2429 239.918 14.2429C238.28 14.2429 236.492 15.0621 234.556 16.7004V35.6907C234.556 37.1429 235.208 38.0552 236.511 38.4276L237.014 38.5951V39.1537H223.888Z" fill="white"/>
<path d="M214.936 8.54592C213.67 8.54592 212.59 8.15494 211.697 7.37299C210.84 6.5538 210.412 5.52982 210.412 4.30104C210.412 3.03502 210.84 2.01103 211.697 1.22908C212.59 0.447128 213.67 0.0561523 214.936 0.0561523C216.202 0.0561523 217.263 0.447128 218.12 1.22908C218.976 2.01103 219.405 3.03502 219.405 4.30104C219.405 5.52982 218.976 6.5538 218.12 7.37299C217.263 8.15494 216.202 8.54592 214.936 8.54592ZM208.345 39.1538V38.5952L209.127 38.3718C209.872 38.1484 210.375 37.8133 210.635 37.3665C210.933 36.9196 211.082 36.3239 211.082 35.5791V18.0969C211.082 17.315 210.933 16.7378 210.635 16.3654C210.375 15.9559 209.872 15.6766 209.127 15.5276L208.345 15.3601V14.8015L218.567 11.5062L219.125 12.0647L218.958 19.9959V35.635C218.958 36.3797 219.088 36.9755 219.349 37.4223C219.647 37.8691 220.149 38.2043 220.857 38.4277L221.415 38.5952V39.1538H208.345Z" fill="white"/>
<path d="M198.664 39.9913C196.281 39.9913 194.42 39.3955 193.079 38.2039C191.776 37.0124 191.124 35.1134 191.124 32.5069V13.4049H187.27V12.8463L188.611 12.6229C189.765 12.3623 190.752 11.9899 191.571 11.5058C192.427 11.0218 193.265 10.3701 194.084 9.55096L198.664 4.46826H199.223L199.055 12.2878H205.311V13.4049H199V33.5122C199 34.8155 199.279 35.8022 199.837 36.4725C200.433 37.1427 201.178 37.4778 202.072 37.4778C202.853 37.4778 203.542 37.2917 204.138 36.9193C204.734 36.5097 205.33 35.9698 205.925 35.2995L206.484 35.8581C205.739 37.1241 204.715 38.1295 203.412 38.8742C202.109 39.6189 200.526 39.9913 198.664 39.9913Z" fill="white"/>
<path d="M172.238 39.1535V38.5949L172.908 38.3715C174.249 37.9247 174.919 36.9938 174.919 35.5788V5.69708C174.919 4.95237 174.77 4.39383 174.472 4.02147C174.174 3.61188 173.653 3.31399 172.908 3.12781L172.182 2.96025V2.40171L182.404 0L183.074 0.502686L182.85 8.32221V27.4242C182.85 28.8019 182.85 30.1796 182.85 31.5574C182.888 32.8979 182.906 34.2384 182.906 35.5788C182.906 36.3236 183.055 36.938 183.353 37.422C183.651 37.8688 184.154 38.204 184.861 38.4274L185.587 38.5949V39.1535H172.238Z" fill="white"/>
<path d="M150.49 39.9908C149.037 39.9908 147.697 39.7115 146.468 39.153C145.277 38.5945 144.327 37.7008 143.62 36.472C142.949 35.206 142.633 33.549 142.67 31.501L142.838 17.1466C142.838 16.2902 142.689 15.6758 142.391 15.3035C142.093 14.9311 141.627 14.6704 140.994 14.5215L140.324 14.2981V13.7395L150.322 11.7847L150.881 12.3432L150.601 20.2744V33.7352C150.601 34.9267 150.936 35.8018 151.607 36.3603C152.314 36.9189 153.189 37.1981 154.232 37.1981C155.274 37.1981 156.205 37.0492 157.024 36.7513C157.844 36.4534 158.663 36.0066 159.482 35.4108L159.705 17.2025C159.705 16.3461 159.575 15.7503 159.315 15.4152C159.054 15.0428 158.57 14.7821 157.862 14.6332L157.304 14.4656V13.9071L167.078 11.7847L167.637 12.3432L167.469 20.2744V35.4108C167.469 36.23 167.581 36.863 167.804 37.3098C168.028 37.7567 168.512 38.129 169.256 38.4269L169.815 38.5945V39.153L160.041 39.7115L159.538 36.4162C158.309 37.4215 156.969 38.278 155.516 38.9854C154.101 39.6557 152.426 39.9908 150.49 39.9908Z" fill="white"/>
<path d="M126.043 39.9915C124.219 39.9915 122.58 39.7681 121.128 39.3212C119.676 38.9116 118.335 38.3903 117.106 37.7573L117.162 31.1107H117.721L119.62 34.4619C120.439 35.9514 121.333 37.0685 122.301 37.8132C123.306 38.5207 124.572 38.8744 126.099 38.8744C127.886 38.8744 129.32 38.4834 130.4 37.7015C131.517 36.8823 132.075 35.8024 132.075 34.4619C132.075 33.2332 131.684 32.2278 130.902 31.4458C130.12 30.6639 128.668 29.9564 126.546 29.3234L124.2 28.5973C121.929 27.9271 120.141 26.8845 118.838 25.4695C117.535 24.0545 116.883 22.3231 116.883 20.2751C116.883 17.8175 117.851 15.7323 119.787 14.0195C121.724 12.3066 124.498 11.4502 128.11 11.4502C129.562 11.4502 130.921 11.6178 132.187 11.9529C133.49 12.2508 134.738 12.7162 135.929 13.3492L135.594 19.3814H135.036L133.081 15.9185C132.373 14.6897 131.666 13.8333 130.958 13.3492C130.288 12.8279 129.264 12.5673 127.886 12.5673C126.62 12.5673 125.429 12.921 124.312 13.6285C123.195 14.336 122.636 15.3413 122.636 16.6446C122.636 17.9106 123.101 18.916 124.032 19.6607C125 20.4054 126.415 21.0943 128.277 21.7273L130.791 22.4534C133.472 23.2726 135.389 24.4083 136.544 25.8605C137.698 27.2754 138.275 28.9883 138.275 30.999C138.275 33.7172 137.195 35.8955 135.036 37.5339C132.913 39.1723 129.916 39.9915 126.043 39.9915Z" fill="white"/>
<path d="M84.0901 39.1537V38.5951L84.872 38.3717C86.1753 37.9993 86.8269 37.0871 86.8269 35.6349V18.1526C86.8269 17.3335 86.6966 16.7377 86.4359 16.3653C86.1753 15.9557 85.6726 15.6765 84.9279 15.5275L84.0901 15.3041V14.7456L93.6411 11.506L94.1996 12.0646L94.6464 15.4158C95.9497 14.2615 97.4205 13.312 99.0589 12.5673C100.697 11.8226 102.317 11.4502 103.918 11.4502C106.376 11.4502 108.256 12.1204 109.559 13.4609C110.9 14.8014 111.57 16.8494 111.57 19.6048V35.6907C111.57 37.1429 112.278 38.0552 113.693 38.4276L114.195 38.5951V39.1537H101.014V38.5951L101.74 38.3717C103.043 37.9621 103.695 37.0498 103.695 35.6349V17.8175C103.695 15.4344 102.503 14.2429 100.12 14.2429C98.4817 14.2429 96.6944 15.0621 94.7582 16.7004V35.6907C94.7582 37.1429 95.4098 38.0552 96.713 38.4276L97.2157 38.5951V39.1537H84.0901Z" fill="white"/>
<path d="M67.785 39.9915C64.9551 39.9915 62.4975 39.4143 60.4123 38.26C58.3271 37.0685 56.7074 35.3928 55.5531 33.2332C54.436 31.0735 53.8774 28.5414 53.8774 25.637C53.8774 22.7327 54.4732 20.2192 55.6648 18.0968C56.8935 15.9743 58.5505 14.336 60.6357 13.1817C62.7582 12.0274 65.1413 11.4502 67.785 11.4502C70.4288 11.4502 72.7932 12.0274 74.8785 13.1817C76.9637 14.2987 78.602 15.9185 79.7936 18.0409C81.0224 20.1634 81.6368 22.6954 81.6368 25.637C81.6368 28.5787 81.0596 31.1293 79.9053 33.289C78.7882 35.4115 77.1871 37.0685 75.1019 38.26C73.0539 39.4143 70.615 39.9915 67.785 39.9915ZM67.785 38.8744C69.0883 38.8744 70.1309 38.502 70.9128 37.7573C71.6948 37.0126 72.2533 35.6907 72.5884 33.7917C72.9608 31.8927 73.147 29.2117 73.147 25.7488C73.147 22.2486 72.9608 19.549 72.5884 17.65C72.2533 15.7509 71.6948 14.4291 70.9128 13.6843C70.1309 12.9396 69.0883 12.5673 67.785 12.5673C66.4818 12.5673 65.4206 12.9396 64.6014 13.6843C63.8194 14.4291 63.2423 15.7509 62.8699 17.65C62.5348 19.549 62.3672 22.2486 62.3672 25.7488C62.3672 29.2117 62.5348 31.8927 62.8699 33.7917C63.2423 35.6907 63.8194 37.0126 64.6014 37.7573C65.4206 38.502 66.4818 38.8744 67.785 38.8744Z" fill="white"/>
<path d="M39.3254 40.1594C35.7135 40.1594 32.4368 39.4333 29.4951 37.9811C26.5907 36.4916 24.2821 34.2947 22.5693 31.3903C20.8564 28.4859 20 24.9299 20 20.7223C20 17.52 20.5213 14.7087 21.5639 12.2883C22.6065 9.86802 24.0215 7.83866 25.8088 6.20029C27.6333 4.56191 29.7186 3.33313 32.0644 2.51394C34.4475 1.69475 36.9609 1.28516 39.6047 1.28516C41.7271 1.28516 43.682 1.52719 45.4693 2.01126C47.2566 2.49532 48.9322 3.16557 50.4962 4.02199L50.7196 10.892H50.161L47.3683 6.4237C46.996 5.71622 46.5864 5.08321 46.1396 4.52468C45.6927 3.9289 45.1342 3.48207 44.4639 3.18418C43.9054 2.92353 43.3469 2.73735 42.7883 2.62564C42.267 2.4767 41.5968 2.40223 40.7776 2.40223C38.6179 2.40223 36.6444 2.97939 34.8571 4.1337C33.107 5.28801 31.6921 7.20565 30.6122 9.88663C29.5696 12.5304 29.0483 16.1609 29.0483 20.7781C29.0483 25.3581 29.551 28.9886 30.5564 31.6696C31.5617 34.3133 32.9208 36.2124 34.6337 37.3667C36.3838 38.4838 38.3386 39.0423 40.4983 39.0423C41.6899 39.0423 42.6394 38.9678 43.3469 38.8189C44.0543 38.6327 44.7618 38.3721 45.4693 38.0369C46.1768 37.739 46.7167 37.3108 47.0891 36.7523C47.4614 36.1565 47.7966 35.5235 48.0944 34.8533L50.552 29.3796H51.1105L50.943 37.3667C49.3791 38.1859 47.629 38.8561 45.6927 39.3774C43.7565 39.8987 41.634 40.1594 39.3254 40.1594Z" fill="white"/>
<circle cx="293.994" cy="25.9995" r="6" fill="#B68F0E"/>
</svg>
