<svg width="134" height="18" viewBox="0 0 134 18" fill="none" xmlns="http://www.w3.org/2000/svg">
<path d="M100.037 10.125C99.2094 10.125 98.5074 9.98699 97.9314 9.71099V10.323C97.9314 10.695 98.1174 10.917 98.4894 10.989L101.873 11.619C102.437 11.727 102.947 11.871 103.403 12.051C103.859 12.219 104.225 12.465 104.501 12.789C104.777 13.101 104.915 13.533 104.915 14.085C104.915 14.673 104.723 15.213 104.339 15.705C103.955 16.209 103.385 16.611 102.629 16.911C101.885 17.223 100.955 17.379 99.8394 17.379C98.8794 17.379 98.1174 17.277 97.5534 17.073C96.9894 16.881 96.5874 16.629 96.3474 16.317C96.1194 16.005 96.0054 15.675 96.0054 15.327C96.0054 14.895 96.1494 14.457 96.4374 14.013C96.7374 13.581 97.1034 13.233 97.5354 12.969C97.1634 12.825 96.8934 12.639 96.7254 12.411C96.5574 12.183 96.4734 11.937 96.4734 11.673C96.4734 11.433 96.5334 11.211 96.6534 11.007C96.7854 10.791 96.9414 10.575 97.1214 10.359L97.7154 9.60299C96.8394 9.09899 96.4014 8.30699 96.4014 7.22699C96.4014 6.36299 96.7074 5.66099 97.3194 5.12099C97.9434 4.58099 98.8554 4.31099 100.055 4.31099C100.667 4.31099 101.201 4.38299 101.657 4.52699C102.125 4.67099 102.509 4.87499 102.809 5.13899C103.193 5.07899 103.553 4.98299 103.889 4.85099C104.237 4.70699 104.549 4.51499 104.825 4.27499L105.077 4.45499V5.37299H103.043C103.475 5.85299 103.691 6.47099 103.691 7.22699C103.691 8.06699 103.379 8.76299 102.755 9.31499C102.143 9.85499 101.237 10.125 100.037 10.125ZM100.019 9.76499C100.499 9.76499 100.847 9.56699 101.063 9.17099C101.291 8.77499 101.405 8.11499 101.405 7.19099C101.405 6.26699 101.291 5.61899 101.063 5.24699C100.847 4.86299 100.511 4.67099 100.055 4.67099C99.6114 4.67099 99.2754 4.86899 99.0474 5.26499C98.8194 5.64899 98.7054 6.30299 98.7054 7.22699C98.7054 8.15099 98.8074 8.805 99.0114 9.189C99.2274 9.573 99.5634 9.76499 100.019 9.76499ZM97.3374 14.751C97.3374 15.459 97.5534 15.993 97.9854 16.353C98.4294 16.713 99.1254 16.893 100.073 16.893C101.069 16.893 101.819 16.731 102.323 16.407C102.827 16.083 103.079 15.627 103.079 15.039C103.079 14.703 102.953 14.433 102.701 14.229C102.461 14.025 102.047 13.869 101.459 13.761L98.2014 13.149C98.1054 13.125 98.0094 13.101 97.9134 13.077C97.7454 13.317 97.6074 13.587 97.4994 13.887C97.3914 14.199 97.3374 14.487 97.3374 14.751Z" fill="white"/>
<path d="M85.707 13.239V13.059L85.959 12.987C86.379 12.867 86.589 12.573 86.589 12.105V6.471C86.589 6.207 86.547 6.015 86.463 5.895C86.379 5.763 86.217 5.673 85.977 5.625L85.707 5.55301V5.373L88.785 4.329L88.965 4.509L89.109 5.589C89.529 5.217 90.003 4.91101 90.531 4.67101C91.059 4.43101 91.581 4.311 92.097 4.311C92.889 4.311 93.495 4.52701 93.915 4.95901C94.347 5.39101 94.563 6.051 94.563 6.939V12.123C94.563 12.591 94.791 12.885 95.247 13.005L95.409 13.059V13.239H91.161V13.059L91.395 12.987C91.815 12.855 92.025 12.561 92.025 12.105V6.363C92.025 5.595 91.641 5.21101 90.873 5.21101C90.345 5.21101 89.769 5.47501 89.145 6.00301V12.123C89.145 12.591 89.355 12.885 89.775 13.005L89.937 13.059V13.239H85.707Z" fill="white"/>
<path d="M82.822 3.37499C82.414 3.37499 82.066 3.24899 81.778 2.99699C81.502 2.73299 81.364 2.40299 81.364 2.00699C81.364 1.59899 81.502 1.26899 81.778 1.01699C82.066 0.764992 82.414 0.638992 82.822 0.638992C83.23 0.638992 83.572 0.764992 83.848 1.01699C84.124 1.26899 84.262 1.59899 84.262 2.00699C84.262 2.40299 84.124 2.73299 83.848 2.99699C83.572 3.24899 83.23 3.37499 82.822 3.37499ZM80.698 13.239V13.059L80.95 12.987C81.19 12.915 81.352 12.807 81.436 12.663C81.532 12.519 81.58 12.327 81.58 12.087V6.45299C81.58 6.20099 81.532 6.01499 81.436 5.89499C81.352 5.76299 81.19 5.67299 80.95 5.62499L80.698 5.57099V5.39099L83.992 4.32899L84.172 4.50899L84.118 7.06499V12.105C84.118 12.345 84.16 12.537 84.244 12.681C84.34 12.825 84.502 12.933 84.73 13.005L84.91 13.059V13.239H80.698Z" fill="white"/>
<path d="M77.5782 13.509C76.8102 13.509 76.2102 13.317 75.7782 12.933C75.3582 12.549 75.1482 11.937 75.1482 11.097V4.94099H73.9062V4.76099L74.3382 4.68899C74.7102 4.60499 75.0282 4.48499 75.2922 4.32899C75.5682 4.17299 75.8382 3.96299 76.1022 3.69899L77.5782 2.06099H77.7582L77.7042 4.58099H79.7202V4.94099H77.6862V11.421C77.6862 11.841 77.7762 12.159 77.9562 12.375C78.1482 12.591 78.3883 12.699 78.6763 12.699C78.9283 12.699 79.1502 12.639 79.3422 12.519C79.5342 12.387 79.7262 12.213 79.9182 11.997L80.0982 12.177C79.8582 12.585 79.5282 12.909 79.1082 13.149C78.6882 13.389 78.1782 13.509 77.5782 13.509Z" fill="white"/>
<path d="M69.0617 13.239V13.059L69.2777 12.987C69.7097 12.843 69.9257 12.543 69.9257 12.087V2.457C69.9257 2.217 69.8777 2.037 69.7817 1.917C69.6857 1.785 69.5177 1.689 69.2777 1.629L69.0437 1.575V1.395L72.3377 0.621002L72.5537 0.783003L72.4817 3.303V9.459C72.4817 9.903 72.4817 10.347 72.4817 10.791C72.4937 11.223 72.4997 11.655 72.4997 12.087C72.4997 12.327 72.5477 12.525 72.6437 12.681C72.7397 12.825 72.9017 12.933 73.1297 13.005L73.3637 13.059V13.239H69.0617Z" fill="white"/>
<path d="M62.0529 13.509C61.5849 13.509 61.1529 13.419 60.7569 13.239C60.3729 13.059 60.0669 12.771 59.8389 12.375C59.6229 11.967 59.5209 11.433 59.5329 10.773L59.5869 6.14699C59.5869 5.87099 59.5389 5.67299 59.4429 5.55299C59.3469 5.43299 59.1969 5.34899 58.9929 5.30099L58.7769 5.22899V5.04899L61.9989 4.41899L62.1789 4.59899L62.0889 7.15499V11.493C62.0889 11.877 62.1969 12.159 62.4129 12.339C62.6409 12.519 62.9229 12.609 63.2589 12.609C63.5949 12.609 63.8949 12.561 64.1589 12.465C64.4229 12.369 64.6869 12.225 64.9509 12.033L65.0229 6.16499C65.0229 5.88899 64.9809 5.69699 64.8969 5.58899C64.8129 5.46899 64.6569 5.38499 64.4289 5.33699L64.2489 5.28299V5.10299L67.3989 4.41899L67.5789 4.59899L67.5249 7.15499V12.033C67.5249 12.297 67.5609 12.501 67.6329 12.645C67.7049 12.789 67.8609 12.909 68.1009 13.005L68.2809 13.059V13.239L65.1309 13.419L64.9689 12.357C64.5729 12.681 64.1409 12.957 63.6729 13.185C63.2169 13.401 62.6769 13.509 62.0529 13.509Z" fill="white"/>
<path d="M54.1747 13.509C53.5867 13.509 53.0587 13.437 52.5907 13.293C52.1227 13.161 51.6907 12.993 51.2947 12.789L51.3127 10.647H51.4927L52.1047 11.727C52.3687 12.207 52.6567 12.567 52.9687 12.807C53.2927 13.035 53.7007 13.149 54.1927 13.149C54.7687 13.149 55.2307 13.023 55.5787 12.771C55.9387 12.507 56.1187 12.159 56.1187 11.727C56.1187 11.331 55.9927 11.007 55.7407 10.755C55.4887 10.503 55.0207 10.275 54.3367 10.071L53.5807 9.837C52.8487 9.621 52.2727 9.28501 51.8527 8.82901C51.4327 8.373 51.2227 7.815 51.2227 7.155C51.2227 6.363 51.5347 5.691 52.1587 5.139C52.7827 4.587 53.6767 4.311 54.8407 4.311C55.3087 4.311 55.7467 4.365 56.1547 4.473C56.5747 4.569 56.9767 4.719 57.3607 4.92301L57.2527 6.86701H57.0727L56.4427 5.75101C56.2147 5.355 55.9867 5.079 55.7587 4.92301C55.5427 4.75501 55.2127 4.67101 54.7687 4.67101C54.3607 4.67101 53.9767 4.78501 53.6167 5.01301C53.2567 5.24101 53.0767 5.565 53.0767 5.985C53.0767 6.393 53.2267 6.717 53.5267 6.957C53.8387 7.197 54.2947 7.419 54.8947 7.623L55.7047 7.85701C56.5687 8.12101 57.1867 8.487 57.5587 8.955C57.9307 9.411 58.1167 9.96301 58.1167 10.611C58.1167 11.487 57.7687 12.189 57.0727 12.717C56.3887 13.245 55.4227 13.509 54.1747 13.509Z" fill="white"/>
<path d="M40.6543 13.239V13.059L40.9063 12.987C41.3263 12.867 41.5363 12.573 41.5363 12.105V6.471C41.5363 6.207 41.4943 6.015 41.4103 5.895C41.3263 5.763 41.1643 5.673 40.9243 5.625L40.6543 5.55301V5.373L43.7323 4.329L43.9123 4.509L44.0563 5.589C44.4763 5.217 44.9503 4.91101 45.4783 4.67101C46.0063 4.43101 46.5283 4.311 47.0443 4.311C47.8363 4.311 48.4423 4.52701 48.8623 4.95901C49.2943 5.39101 49.5103 6.051 49.5103 6.939V12.123C49.5103 12.591 49.7383 12.885 50.1943 13.005L50.3563 13.059V13.239H46.1083V13.059L46.3423 12.987C46.7623 12.855 46.9723 12.561 46.9723 12.105V6.363C46.9723 5.595 46.5883 5.21101 45.8203 5.21101C45.2923 5.21101 44.7163 5.47501 44.0923 6.00301V12.123C44.0923 12.591 44.3023 12.885 44.7223 13.005L44.8843 13.059V13.239H40.6543Z" fill="white"/>
<path d="M35.3997 13.509C34.4877 13.509 33.6957 13.323 33.0237 12.951C32.3517 12.567 31.8297 12.027 31.4577 11.331C31.0977 10.635 30.9177 9.819 30.9177 8.883C30.9177 7.947 31.1097 7.137 31.4937 6.453C31.8897 5.769 32.4237 5.241 33.0957 4.869C33.7797 4.497 34.5477 4.311 35.3997 4.311C36.2517 4.311 37.0137 4.497 37.6857 4.869C38.3577 5.229 38.8857 5.751 39.2697 6.435C39.6657 7.119 39.8637 7.935 39.8637 8.883C39.8637 9.831 39.6777 10.653 39.3057 11.349C38.9457 12.033 38.4297 12.567 37.7577 12.951C37.0977 13.323 36.3117 13.509 35.3997 13.509ZM35.3997 13.149C35.8197 13.149 36.1557 13.029 36.4077 12.789C36.6597 12.549 36.8397 12.123 36.9477 11.511C37.0677 10.899 37.1277 10.035 37.1277 8.91901C37.1277 7.79101 37.0677 6.921 36.9477 6.309C36.8397 5.697 36.6597 5.27101 36.4077 5.031C36.1557 4.79101 35.8197 4.67101 35.3997 4.67101C34.9797 4.67101 34.6377 4.79101 34.3737 5.031C34.1217 5.27101 33.9357 5.697 33.8157 6.309C33.7077 6.921 33.6537 7.79101 33.6537 8.91901C33.6537 10.035 33.7077 10.899 33.8157 11.511C33.9357 12.123 34.1217 12.549 34.3737 12.789C34.6377 13.029 34.9797 13.149 35.3997 13.149Z" fill="white"/>
<path d="M26.228 13.563C25.064 13.563 24.008 13.329 23.06 12.861C22.124 12.381 21.38 11.673 20.828 10.737C20.276 9.801 20 8.655 20 7.299C20 6.267 20.168 5.361 20.504 4.581C20.84 3.801 21.296 3.147 21.872 2.619C22.46 2.091 23.132 1.695 23.888 1.431C24.656 1.167 25.466 1.035 26.318 1.035C27.002 1.035 27.632 1.113 28.208 1.269C28.784 1.425 29.324 1.641 29.828 1.917L29.9 4.131H29.72L28.82 2.691C28.7 2.463 28.568 2.259 28.424 2.079C28.28 1.887 28.1 1.743 27.884 1.647C27.704 1.563 27.524 1.503 27.344 1.467C27.176 1.419 26.96 1.395 26.696 1.395C26 1.395 25.364 1.581 24.788 1.953C24.224 2.325 23.768 2.943 23.42 3.807C23.084 4.659 22.916 5.829 22.916 7.317C22.916 8.793 23.078 9.963 23.402 10.827C23.726 11.679 24.164 12.291 24.716 12.663C25.28 13.023 25.91 13.203 26.606 13.203C26.99 13.203 27.296 13.179 27.524 13.131C27.752 13.071 27.98 12.987 28.208 12.879C28.436 12.783 28.61 12.645 28.73 12.465C28.85 12.273 28.958 12.069 29.054 11.853L29.846 10.089H30.026L29.972 12.663C29.468 12.927 28.904 13.143 28.28 13.311C27.656 13.479 26.972 13.563 26.228 13.563Z" fill="white"/>
<circle cx="111.077" cy="9" r="2" fill="#B68F0E"/>
</svg>
