<svg width="117" height="48" viewBox="0 0 117 48" fill="none" xmlns="http://www.w3.org/2000/svg">
<path d="M13.6443 0V43.9761C9.56669 42.0213 6.11713 38.9144 3.7004 35.0198C1.28367 31.1252 0 26.6044 0 21.988C0 17.3715 1.28367 12.8508 3.7004 8.95622C6.11713 5.06162 9.56669 1.95471 13.6443 0ZM27.2515 23.7789C25.8891 23.7914 24.5294 23.6542 23.1955 23.3695V6.1056L26.8947 6.03206C33.2611 6.03206 36.4461 8.92162 36.4499 14.7008C36.4521 20.7528 33.387 23.7789 27.2548 23.7789H27.2515Z" fill="white"/>
<path d="M46.8243 21.9876C46.8243 28.3944 44.3438 34.5388 39.9281 39.0704C35.5124 43.602 29.5229 46.1497 23.2764 46.1535H23.1411V31.8338C24.2275 31.9324 25.3878 31.9817 26.622 31.9817C32.9036 31.9817 37.8494 30.2326 41.4596 26.7343C44.1283 24.1225 45.8436 20.6515 46.3199 16.8999C46.6617 18.5729 46.8307 20.2782 46.8243 21.9876Z" fill="white"/>
<path d="M54.7651 27.1884V10.7964H60.7789C62.105 10.7964 63.2048 10.9884 64.0783 11.3724C64.952 11.7404 65.6072 12.3404 66.0439 13.1724C66.4964 14.0044 66.7225 15.1164 66.7225 16.5084C66.7225 17.9004 66.4964 19.0364 66.0439 19.9164C65.6072 20.7804 64.952 21.4204 64.0783 21.8364C63.2048 22.2364 62.105 22.4364 60.7789 22.4364H57.9943V27.1884H54.7651ZM57.9943 19.7244H60.6853C61.6681 19.7244 62.3701 19.4604 62.7913 18.9324C63.2125 18.3884 63.4231 17.5884 63.4231 16.5324C63.4231 15.4444 63.2125 14.6684 62.7913 14.2044C62.3701 13.7404 61.6681 13.5084 60.6853 13.5084H57.9943V19.7244ZM74.6499 27.4524C73.3395 27.4524 72.2241 27.2764 71.3037 26.9244C70.3989 26.5724 69.7125 25.9884 69.2445 25.1724C68.7765 24.3404 68.5425 23.2364 68.5425 21.8604V10.7964H71.7717V21.9804C71.7717 22.9244 72.0135 23.6044 72.4971 24.0204C72.9963 24.4364 73.7139 24.6444 74.6499 24.6444C75.6327 24.6444 76.3737 24.4364 76.8729 24.0204C77.3721 23.6044 77.6217 22.9244 77.6217 21.9804V10.7964H80.8509V21.8124C80.8509 23.1884 80.6091 24.2924 80.1255 25.1244C79.6575 25.9564 78.9633 26.5564 78.0429 26.9244C77.1381 27.2764 76.0071 27.4524 74.6499 27.4524ZM83.6724 27.1884V10.7964H86.9016V27.1884H83.6724ZM95.8789 27.4524C94.5685 27.4524 93.4532 27.2764 92.5327 26.9244C91.628 26.5724 90.9415 25.9884 90.4735 25.1724C90.0055 24.3404 89.7715 23.2364 89.7715 21.8604V10.7964H93.0007V21.9804C93.0007 22.9244 93.2426 23.6044 93.7261 24.0204C94.2254 24.4364 94.9429 24.6444 95.8789 24.6444C96.8617 24.6444 97.6028 24.4364 98.1019 24.0204C98.6012 23.6044 98.8507 22.9244 98.8507 21.9804V10.7964H102.08V21.8124C102.08 23.1884 101.838 24.2924 101.355 25.1244C100.887 25.9564 100.192 26.5564 99.2719 26.9244C98.3672 27.2764 97.2361 27.4524 95.8789 27.4524ZM103.615 27.1884L107.967 19.2204L103.615 10.7964H107.031L110.073 16.8204L113.278 10.7964H116.578L112.202 18.9084L116.484 27.1884H113.044L110.049 21.3324L106.96 27.1884H103.615Z" fill="white"/>
<path d="M56.2432 38.1814L55.2424 33.0787H55.84L56.6753 37.6646H56.8768L57.8848 33.1156H58.5616L59.5696 37.6646H59.7712L60.6065 33.0787H61.204L60.196 38.1814H59.1593L58.1729 33.5882H58.2736L57.2873 38.1814H56.2432ZM62.9926 38.2553C62.6327 38.2553 62.3471 38.184 62.1359 38.0412C61.9295 37.8984 61.7807 37.6867 61.6895 37.406C61.5983 37.1254 61.5527 36.7759 61.5527 36.3574C61.5527 35.8898 61.6151 35.5156 61.7399 35.235C61.8646 34.9494 62.0399 34.7427 62.2655 34.6147C62.4911 34.4817 62.7575 34.4153 63.0646 34.4153C63.5446 34.4153 63.907 34.5532 64.1519 34.8289C64.3966 35.0996 64.519 35.5377 64.519 36.1433L64.4902 36.579H62.1215C62.1263 36.963 62.1958 37.2534 62.3303 37.4503C62.4646 37.6473 62.707 37.7457 63.0575 37.7457C63.1918 37.7457 63.3383 37.7433 63.4967 37.7383C63.6598 37.7285 63.8207 37.7187 63.979 37.7089C64.1375 37.6989 64.2719 37.6891 64.3823 37.6793L64.3966 38.1297C64.2814 38.1495 64.1399 38.1691 63.9719 38.1889C63.8086 38.2085 63.6407 38.2233 63.4679 38.2332C63.2951 38.2479 63.1366 38.2553 62.9926 38.2553ZM62.1215 36.1137H63.9574C63.9574 35.6608 63.8854 35.3457 63.7414 35.1686C63.6023 34.9864 63.3767 34.8953 63.0646 34.8953C62.8631 34.8953 62.6927 34.9372 62.5534 35.0209C62.4143 35.0996 62.3063 35.2276 62.2295 35.4049C62.1575 35.582 62.1215 35.8183 62.1215 36.1137ZM66.563 38.2553C66.4574 38.2553 66.3302 38.2504 66.1814 38.2406C66.0374 38.2356 65.891 38.2257 65.7422 38.211C65.5934 38.1962 65.4614 38.184 65.3462 38.174V32.8867H65.9078V34.6663C65.9846 34.6269 66.0807 34.5901 66.1959 34.5556C66.3111 34.5162 66.4334 34.4842 66.563 34.4596C66.6975 34.43 66.8246 34.4153 66.9447 34.4153C67.271 34.4153 67.5302 34.4793 67.7222 34.6073C67.9191 34.7304 68.0582 34.9298 68.1399 35.2054C68.2262 35.4762 68.2694 35.8332 68.2694 36.2762C68.2694 36.7685 68.2167 37.1599 68.1111 37.4503C68.0102 37.7359 67.835 37.9426 67.5854 38.0707C67.3407 38.1938 66.9999 38.2553 66.563 38.2553ZM66.5558 37.7383C66.8822 37.7383 67.1246 37.6891 67.283 37.5907C67.4463 37.4873 67.5542 37.3273 67.607 37.1107C67.6646 36.8941 67.6935 36.6159 67.6935 36.2762C67.6935 35.9611 67.6694 35.7052 67.6215 35.5082C67.5734 35.3113 67.4895 35.1661 67.3694 35.0726C67.2542 34.979 67.0935 34.9322 66.887 34.9322C66.7718 34.9322 66.6518 34.9445 66.527 34.9692C66.4022 34.9888 66.2847 35.016 66.1743 35.0503C66.0687 35.0799 65.9798 35.1094 65.9078 35.139V37.7014C66.0087 37.7113 66.1239 37.7212 66.2534 37.731C66.3879 37.7359 66.4886 37.7383 66.5558 37.7383ZM69.2679 38.2922L68.7639 38.1076L70.7943 32.9457L71.2982 33.1377L69.2679 38.2922ZM71.4201 38.1814L72.781 33.0787H74.0266L75.3802 38.1814H74.8042L74.4514 36.8892H72.349L71.9962 38.1814H71.4201ZM72.4713 36.3649H74.329L73.5874 33.5809H73.213L72.4713 36.3649ZM76.062 39.8134V34.4892H76.6164V34.755C76.6932 34.7057 76.7893 34.6565 76.9044 34.6073C77.0244 34.5532 77.1516 34.5088 77.286 34.4743C77.4204 34.4349 77.55 34.4153 77.6748 34.4153C77.982 34.4153 78.2317 34.4817 78.4236 34.6147C78.6156 34.7427 78.7572 34.9445 78.8485 35.2202C78.9444 35.496 78.9924 35.8528 78.9924 36.291C78.9924 36.7734 78.9373 37.1599 78.8269 37.4503C78.7212 37.7359 78.5509 37.9426 78.3156 38.0707C78.0852 38.1938 77.7853 38.2553 77.4156 38.2553C77.2668 38.2553 77.1156 38.2455 76.962 38.2257C76.8132 38.2061 76.698 38.1889 76.6164 38.174V39.8134H76.062ZM77.3868 37.7532C77.646 37.7532 77.85 37.704 77.9988 37.6054C78.1524 37.5069 78.2604 37.3519 78.3228 37.1402C78.3852 36.9236 78.4164 36.6405 78.4164 36.291C78.4164 35.7938 78.3444 35.4442 78.2004 35.2423C78.0564 35.0356 77.8548 34.9322 77.5956 34.9322C77.4804 34.9322 77.3604 34.947 77.2357 34.9766C77.1156 35.006 77.0004 35.043 76.89 35.0873C76.7796 35.1267 76.6884 35.1686 76.6164 35.2129V37.6793C76.6932 37.6891 76.8061 37.704 76.9549 37.7236C77.1037 37.7433 77.2476 37.7532 77.3868 37.7532ZM79.8659 39.8134V34.4892H80.4203V34.755C80.4971 34.7057 80.5931 34.6565 80.7083 34.6073C80.8283 34.5532 80.9555 34.5088 81.09 34.4743C81.2243 34.4349 81.354 34.4153 81.4787 34.4153C81.7859 34.4153 82.0355 34.4817 82.2275 34.6147C82.4195 34.7427 82.5611 34.9445 82.6523 35.2202C82.7483 35.496 82.7964 35.8528 82.7964 36.291C82.7964 36.7734 82.7412 37.1599 82.6308 37.4503C82.5251 37.7359 82.3547 37.9426 82.1196 38.0707C81.8891 38.1938 81.5891 38.2553 81.2195 38.2553C81.0707 38.2553 80.9196 38.2455 80.7659 38.2257C80.6172 38.2061 80.5019 38.1889 80.4203 38.174V39.8134H79.8659ZM81.1907 37.7532C81.4499 37.7532 81.6539 37.704 81.8027 37.6054C81.9563 37.5069 82.0644 37.3519 82.1267 37.1402C82.1891 36.9236 82.2203 36.6405 82.2203 36.291C82.2203 35.7938 82.1483 35.4442 82.0044 35.2423C81.8604 35.0356 81.6587 34.9322 81.3995 34.9322C81.2843 34.9322 81.1643 34.947 81.0396 34.9766C80.9196 35.006 80.8044 35.043 80.694 35.0873C80.5836 35.1267 80.4923 35.1686 80.4203 35.2129V37.6793C80.4971 37.6891 80.6099 37.704 80.7588 37.7236C80.9076 37.7433 81.0516 37.7532 81.1907 37.7532ZM84.793 38.2553C84.6826 38.2553 84.5483 38.2479 84.3898 38.2332C84.2362 38.2183 84.0826 38.2012 83.929 38.1814C83.7754 38.1568 83.6387 38.1346 83.5187 38.115L83.5474 37.6202C83.6675 37.635 83.8018 37.6522 83.9506 37.6719C84.1042 37.6916 84.253 37.7089 84.397 37.7236C84.541 37.7334 84.6562 37.7383 84.7426 37.7383C84.9395 37.7383 85.1026 37.7212 85.2322 37.6867C85.3619 37.6473 85.4602 37.5833 85.5275 37.4947C85.5947 37.406 85.6282 37.2806 85.6282 37.118C85.6282 36.995 85.6018 36.899 85.549 36.83C85.5011 36.7612 85.4075 36.7046 85.2682 36.6602C85.1338 36.6159 84.937 36.5741 84.6778 36.5347C84.409 36.4903 84.1834 36.4362 84.001 36.3722C83.8234 36.3033 83.6914 36.2023 83.605 36.0694C83.5187 35.9366 83.4754 35.747 83.4754 35.5009C83.4754 35.2252 83.5378 35.0085 83.6626 34.851C83.7875 34.6935 83.9483 34.5826 84.1451 34.5187C84.3466 34.4498 84.5554 34.4153 84.7714 34.4153C84.9059 34.4153 85.0522 34.4227 85.2106 34.4374C85.3739 34.4522 85.5322 34.4719 85.6858 34.4966C85.8394 34.5162 85.9714 34.536 86.0818 34.5556L86.0675 35.0503C85.9523 35.0307 85.8178 35.0134 85.6642 34.9987C85.5107 34.979 85.3571 34.9642 85.2035 34.9543C85.0499 34.9396 84.9154 34.9322 84.8002 34.9322C84.6562 34.9322 84.5267 34.9494 84.4114 34.9839C84.2962 35.0134 84.205 35.0676 84.1378 35.1463C84.0706 35.2252 84.037 35.3359 84.037 35.4787C84.037 35.5869 84.061 35.6756 84.109 35.7446C84.1571 35.8085 84.2482 35.8627 84.3827 35.907C84.517 35.9513 84.7114 35.9956 84.9659 36.0399C85.2635 36.0892 85.5011 36.1507 85.6786 36.2246C85.861 36.2983 85.993 36.4017 86.0746 36.5347C86.1563 36.6676 86.197 36.8547 86.197 37.0959C86.197 37.3815 86.1395 37.6104 86.0243 37.7827C85.9139 37.9501 85.7531 38.0707 85.5418 38.1446C85.3355 38.2183 85.0858 38.2553 84.793 38.2553ZM90.053 38.2479C89.909 38.2479 89.7409 38.2381 89.549 38.2183C89.357 38.2036 89.165 38.184 88.973 38.1593C88.7858 38.1297 88.6202 38.1052 88.4762 38.0854L88.5337 37.598C88.673 37.6129 88.8338 37.6301 89.0162 37.6497C89.2034 37.6695 89.3858 37.6867 89.5633 37.7014C89.7457 37.7162 89.8993 37.7236 90.0242 37.7236C90.2594 37.7236 90.4538 37.6891 90.6074 37.6202C90.761 37.5463 90.8762 37.4356 90.953 37.2879C91.0298 37.1402 91.0682 36.9507 91.0682 36.7193C91.0682 36.5322 91.0322 36.3845 90.9602 36.2762C90.893 36.1629 90.7778 36.0744 90.6146 36.0103C90.4561 35.9415 90.2426 35.88 89.9738 35.8257C89.7146 35.7716 89.489 35.7101 89.297 35.6412C89.105 35.5722 88.9442 35.486 88.8145 35.3827C88.685 35.2744 88.5889 35.139 88.5266 34.9766C88.4642 34.814 88.433 34.6122 88.433 34.371C88.433 34.0411 88.4978 33.7753 88.6273 33.5734C88.7618 33.3716 88.949 33.2239 89.1889 33.1303C89.4338 33.0368 89.717 32.99 90.0386 32.99C90.1826 32.99 90.3457 33 90.5281 33.0196C90.7153 33.0343 90.8978 33.0541 91.0754 33.0787C91.2578 33.0984 91.4137 33.1205 91.5434 33.1452L91.493 33.6399C91.3537 33.6202 91.193 33.603 91.0106 33.5882C90.8282 33.5685 90.653 33.5513 90.485 33.5366C90.317 33.5217 90.1826 33.5143 90.0817 33.5143C89.8513 33.5143 89.6569 33.5439 89.4986 33.603C89.3402 33.662 89.2202 33.7531 89.1386 33.8762C89.0569 33.9943 89.0162 34.1469 89.0162 34.334C89.0162 34.5507 89.0546 34.7156 89.1314 34.8289C89.213 34.9421 89.3426 35.0307 89.5201 35.0947C89.6978 35.1586 89.9306 35.2252 90.2185 35.294C90.4682 35.3532 90.6817 35.4172 90.8594 35.486C91.0418 35.555 91.1906 35.6412 91.3058 35.7446C91.4257 35.843 91.5122 35.9685 91.565 36.1212C91.6225 36.2689 91.6513 36.4534 91.6513 36.675C91.6513 37.0492 91.5866 37.3519 91.457 37.5833C91.3274 37.8147 91.1426 37.9845 90.9025 38.0929C90.6626 38.1962 90.3793 38.2479 90.053 38.2479ZM93.8905 38.2553C93.4873 38.2553 93.1729 38.184 92.9473 38.0412C92.7265 37.8984 92.5705 37.6817 92.4793 37.3913C92.3929 37.1008 92.3497 36.734 92.3497 36.291C92.3497 35.8676 92.3977 35.5181 92.4937 35.2423C92.5945 34.9666 92.7577 34.7599 92.9833 34.622C93.2089 34.4842 93.5113 34.4153 93.8905 34.4153C94.2745 34.4153 94.5793 34.4842 94.8049 34.622C95.0305 34.7599 95.1913 34.9666 95.2873 35.2423C95.3881 35.5181 95.4385 35.8676 95.4385 36.291C95.4385 36.734 95.3929 37.1008 95.3017 37.3913C95.2153 37.6817 95.0593 37.8984 94.8337 38.0412C94.6129 38.184 94.2985 38.2553 93.8905 38.2553ZM93.8905 37.7606C94.1689 37.7606 94.3778 37.7113 94.5169 37.6129C94.6561 37.5094 94.7473 37.3494 94.7906 37.1329C94.8385 36.9162 94.8626 36.6356 94.8626 36.291C94.8626 35.9513 94.8337 35.6805 94.7761 35.4787C94.7186 35.2768 94.6202 35.1316 94.4809 35.043C94.3417 34.9543 94.1449 34.91 93.8905 34.91C93.6409 34.91 93.4441 34.9543 93.3001 35.043C93.161 35.1316 93.0625 35.2768 93.0049 35.4787C92.9473 35.6805 92.9186 35.9513 92.9186 36.291C92.9186 36.6356 92.9402 36.9162 92.9833 37.1329C93.0313 37.3494 93.1249 37.5094 93.2641 37.6129C93.4034 37.7113 93.6122 37.7606 93.8905 37.7606ZM96.3623 38.1814V32.8867H96.9167V38.1814H96.3623ZM99.0939 38.2553C98.7867 38.2553 98.5515 38.1913 98.3883 38.0633C98.2251 37.9353 98.1123 37.7359 98.05 37.4652C97.9923 37.1944 97.9635 36.8449 97.9635 36.4166V34.4892H98.518V36.4166C98.518 36.7414 98.5323 36.9999 98.5611 37.1919C98.5948 37.3839 98.6643 37.5242 98.7699 37.6129C98.8756 37.6965 99.0339 37.7383 99.2452 37.7383C99.4563 37.7383 99.6483 37.7089 99.8211 37.6497C99.994 37.5907 100.133 37.5316 100.239 37.4726V34.4892H100.793V38.1814H100.239V37.923C100.085 38.0116 99.9171 38.0904 99.7348 38.1593C99.5571 38.2233 99.3436 38.2553 99.0939 38.2553ZM103.012 38.2627C102.763 38.2627 102.564 38.2233 102.415 38.1446C102.271 38.0657 102.168 37.9303 102.105 37.7383C102.043 37.5414 102.012 37.2657 102.012 36.9113V34.9839H101.5V34.4892H102.012V33.3593H102.566V34.4892H103.696V34.9839H102.566V36.7414C102.566 37.0024 102.576 37.2067 102.595 37.3543C102.619 37.4971 102.667 37.598 102.739 37.6572C102.811 37.7162 102.924 37.7457 103.077 37.7457C103.125 37.7457 103.188 37.7433 103.264 37.7383C103.341 37.7334 103.418 37.7285 103.495 37.7236C103.576 37.7138 103.648 37.7064 103.711 37.7014L103.747 38.1814C103.68 38.1913 103.6 38.2012 103.509 38.211C103.418 38.2257 103.327 38.2381 103.236 38.2479C103.149 38.2577 103.075 38.2627 103.012 38.2627ZM104.356 38.1814V34.4892H104.91V38.1814H104.356ZM104.356 33.6769V33.0122H104.91V33.6769H104.356ZM107.327 38.2553C106.924 38.2553 106.61 38.184 106.385 38.0412C106.163 37.8984 106.007 37.6817 105.916 37.3913C105.83 37.1008 105.786 36.734 105.786 36.291C105.786 35.8676 105.834 35.5181 105.93 35.2423C106.031 34.9666 106.194 34.7599 106.42 34.622C106.645 34.4842 106.948 34.4153 107.327 34.4153C107.711 34.4153 108.016 34.4842 108.242 34.622C108.467 34.7599 108.628 34.9666 108.725 35.2423C108.825 35.5181 108.876 35.8676 108.876 36.291C108.876 36.734 108.83 37.1008 108.738 37.3913C108.652 37.6817 108.496 37.8984 108.27 38.0412C108.049 38.184 107.735 38.2553 107.327 38.2553ZM107.327 37.7606C107.606 37.7606 107.814 37.7113 107.953 37.6129C108.093 37.5094 108.184 37.3494 108.227 37.1329C108.276 36.9162 108.299 36.6356 108.299 36.291C108.299 35.9513 108.27 35.6805 108.213 35.4787C108.155 35.2768 108.057 35.1316 107.917 35.043C107.779 34.9543 107.581 34.91 107.327 34.91C107.078 34.91 106.881 34.9543 106.737 35.043C106.597 35.1316 106.499 35.2768 106.442 35.4787C106.385 35.6805 106.355 35.9513 106.355 36.291C106.355 36.6356 106.377 36.9162 106.42 37.1329C106.469 37.3494 106.562 37.5094 106.7 37.6129C106.84 37.7113 107.049 37.7606 107.327 37.7606ZM109.756 38.1814V34.4892H110.31V34.7476C110.392 34.6984 110.492 34.6492 110.612 34.5999C110.737 34.5507 110.87 34.5088 111.008 34.4743C111.147 34.4349 111.283 34.4153 111.411 34.4153C111.661 34.4153 111.865 34.4498 112.024 34.5187C112.182 34.5826 112.305 34.6886 112.391 34.8362C112.482 34.979 112.545 35.1661 112.578 35.3974C112.616 35.6239 112.636 35.8996 112.636 36.2246V38.1814H112.074V36.2467C112.074 35.9266 112.055 35.6707 112.016 35.4787C111.984 35.2867 111.911 35.1488 111.801 35.0652C111.695 34.9766 111.531 34.9322 111.311 34.9322C111.191 34.9322 111.067 34.947 110.937 34.9766C110.811 35.0011 110.694 35.0356 110.584 35.0799C110.473 35.1193 110.382 35.1586 110.31 35.198V38.1814H109.756ZM114.753 38.2553C114.643 38.2553 114.509 38.2479 114.35 38.2332C114.196 38.2183 114.043 38.2012 113.89 38.1814C113.735 38.1568 113.599 38.1346 113.479 38.115L113.508 37.6202C113.628 37.635 113.762 37.6522 113.911 37.6719C114.064 37.6916 114.213 37.7089 114.358 37.7236C114.501 37.7334 114.616 37.7383 114.703 37.7383C114.9 37.7383 115.063 37.7212 115.192 37.6867C115.322 37.6473 115.42 37.5833 115.487 37.4947C115.555 37.406 115.588 37.2806 115.588 37.118C115.588 36.995 115.562 36.899 115.509 36.83C115.462 36.7612 115.368 36.7046 115.229 36.6602C115.094 36.6159 114.897 36.5741 114.638 36.5347C114.369 36.4903 114.144 36.4362 113.961 36.3722C113.783 36.3033 113.651 36.2023 113.565 36.0694C113.479 35.9366 113.435 35.747 113.435 35.5009C113.435 35.2252 113.498 35.0085 113.623 34.851C113.748 34.6935 113.909 34.5826 114.105 34.5187C114.306 34.4498 114.516 34.4153 114.732 34.4153C114.866 34.4153 115.013 34.4227 115.171 34.4374C115.334 34.4522 115.492 34.4719 115.646 34.4966C115.8 34.5162 115.932 34.536 116.042 34.5556L116.027 35.0503C115.913 35.0307 115.777 35.0134 115.624 34.9987C115.471 34.979 115.317 34.9642 115.164 34.9543C115.01 34.9396 114.876 34.9322 114.761 34.9322C114.616 34.9322 114.487 34.9494 114.371 34.9839C114.256 35.0134 114.165 35.0676 114.098 35.1463C114.031 35.2252 113.997 35.3359 113.997 35.4787C113.997 35.5869 114.021 35.6756 114.069 35.7446C114.117 35.8085 114.209 35.8627 114.343 35.907C114.477 35.9513 114.671 35.9956 114.926 36.0399C115.223 36.0892 115.462 36.1507 115.639 36.2246C115.821 36.2983 115.953 36.4017 116.035 36.5347C116.117 36.6676 116.157 36.8547 116.157 37.0959C116.157 37.3815 116.1 37.6104 115.985 37.7827C115.874 37.9501 115.714 38.0707 115.502 38.1446C115.296 38.2183 115.046 38.2553 114.753 38.2553Z" fill="white"/>
</svg>
